<svg width="50" height="50" viewBox="0 0 50 50" fill="none" xmlns="http://www.w3.org/2000/svg">
<g clip-path="url(#clip0_535_1030)">
<path d="M17.3657 1.63959C12.3849 3.36747 8.08951 6.64704 5.11038 10.9966C2.13125 15.3461 0.625444 20.5364 0.814137 25.805C1.00283 31.0736 2.87608 36.1428 6.15873 40.2681C9.44138 44.3934 13.9604 47.3573 19.052 48.7244C23.1799 49.7896 27.5048 49.8363 31.6547 48.8607C35.4142 48.0163 38.8899 46.21 41.7415 43.6187C44.7095 40.8394 46.8638 37.3036 47.9728 33.3917C49.1782 29.1376 49.3927 24.6638 48.5998 20.3138H25.4196V29.9294H38.844C38.5757 31.463 38.0008 32.9268 37.1536 34.233C36.3064 35.5392 35.2044 36.6611 33.9136 37.5315C32.2743 38.6159 30.4264 39.3455 28.4885 39.6735C26.5449 40.0349 24.5513 40.0349 22.6077 39.6735C20.6378 39.2663 18.7744 38.4532 17.1359 37.2862C14.5038 35.423 12.5274 32.776 11.4889 29.723C10.4327 26.6128 10.4327 23.241 11.4889 20.1308C12.2282 17.9507 13.4503 15.9657 15.064 14.3241C16.9108 12.4109 19.2488 11.0433 21.8217 10.3714C24.3945 9.69953 27.1026 9.74929 29.649 10.5152C31.6382 11.1258 33.4573 12.1927 34.9612 13.6308C36.4748 12.125 37.9859 10.6152 39.4944 9.10151C40.2733 8.28755 41.1223 7.51254 41.8895 6.67911C39.594 4.54287 36.8994 2.88061 33.9603 1.78759C28.6081 -0.155822 22.7517 -0.208049 17.3657 1.63959Z" fill="white"/>
<path d="M17.3657 1.63959C22.7513 -0.209304 28.6076 -0.158452 33.9603 1.78369C36.8999 2.88414 39.5933 4.55441 41.8856 6.69858C41.1067 7.53201 40.285 8.31092 39.4905 9.12098C37.9794 10.6295 36.4697 12.1327 34.9612 13.6308C33.4573 12.1927 31.6382 11.1258 29.649 10.5152C27.1035 9.7466 24.3954 9.69397 21.8219 10.3631C19.2484 11.0322 16.9089 12.3973 15.0601 14.3085C13.4464 15.9502 12.2243 17.9351 11.485 20.1152L3.41162 13.8645C6.30139 8.13396 11.3048 3.75052 17.3657 1.63959Z" fill="#E33629"/>
<path d="M1.26929 20.0568C1.70322 17.9062 2.42364 15.8236 3.41128 13.8645L11.4846 20.1308C10.4285 23.241 10.4285 26.6128 11.4846 29.723C8.79481 31.8001 6.10369 33.8876 3.41128 35.9854C0.938839 31.064 0.184789 25.4566 1.26929 20.0568Z" fill="#F8BD00"/>
<path d="M25.4195 20.3099H48.5997C49.3926 24.6599 49.1781 29.1336 47.9727 33.3878C46.8636 37.2997 44.7094 40.8354 41.7414 43.6148C39.136 41.5818 36.5189 39.5645 33.9134 37.5315C35.2051 36.6602 36.3077 35.5371 37.1549 34.2295C38.0021 32.9219 38.5766 31.4566 38.8439 29.9216H25.4195C25.4156 26.7203 25.4195 23.5151 25.4195 20.3099Z" fill="#587DBD"/>
<path d="M3.40747 35.9854C6.09989 33.9083 8.791 31.8209 11.4808 29.723C12.5215 32.7771 14.5007 35.4242 17.1357 37.2862C18.7792 38.4478 20.6467 39.2542 22.6192 39.6541C24.5628 40.0155 26.5563 40.0155 28.4999 39.6541C30.4378 39.326 32.2857 38.5964 33.925 37.5121C36.5304 39.545 39.1475 41.5624 41.753 43.5953C38.9018 46.188 35.426 47.9957 31.6661 48.8413C27.5162 49.8169 23.1914 49.7701 19.0635 48.7049C15.7987 47.8332 12.7492 46.2965 10.1061 44.1912C7.30847 41.9701 5.02352 39.171 3.40747 35.9854Z" fill="#319F43"/>
</g>
<defs>
<clipPath id="clip0_535_1030">
<rect width="49.8499" height="49.8499" fill="white"/>
</clipPath>
</defs>
</svg>
