<svg width="257" height="54" viewBox="0 0 257 54" fill="none" xmlns="http://www.w3.org/2000/svg">
<path d="M0 20.9433L17.6232 33.7835L11.0145 54L28.087 41.9794L45.9855 54L39.3768 33.7835L57 20.9433H35.2464L28.087 1L21.4783 20.9433H0Z" fill="#FBBC05"/>
<path d="M57 20.9433L74.6232 33.7835L68.0145 54L85.087 41.9794L102.986 54L96.3768 33.7835L114 20.9433H92.2464L85.087 1L78.4783 20.9433H57Z" fill="#FBBC05"/>
<path d="M114 20.9433L131.623 33.7835L125.014 54L142.087 41.9794L159.986 54L153.377 33.7835L171 20.9433H149.246L142.087 1L135.478 20.9433H114Z" fill="#FBBC05"/>
<path d="M171 19.9433L188.623 32.7835L182.014 53L199.087 40.9794L216.986 53L210.377 32.7835L228 19.9433H206.246L199.087 0L192.478 19.9433H171Z" fill="#FBBC05"/>
<path d="M228 19.9433L245.623 32.7835L239.014 53L256.087 40.9794V0L249.478 19.9433H228Z" fill="#FBBC05"/>
</svg>
