<svg width="112" height="113" viewBox="0 0 112 113" fill="none" xmlns="http://www.w3.org/2000/svg">
<circle cx="56" cy="56" r="56" fill="#FBBC05"/>
<path fill-rule="evenodd" clip-rule="evenodd" d="M39.8845 65.4073C33.8947 58.3766 29.8407 49.7602 30.5181 40.1054C32.47 12.2871 71.194 18.4067 78.7266 32.447C86.2592 46.4873 85.3642 82.1017 75.6289 84.6111C71.7465 85.6118 63.4759 83.1604 55.0582 78.0867L75.6289 108.5C75.6289 108.5 64.4013 111.877 57 112C48.8795 112.135 44.1129 111.329 36.5 108.5C30.4378 106.247 22 100.5 22 100.5L39.8845 65.4073Z" fill="#B28B67"/>
<path fill-rule="evenodd" clip-rule="evenodd" d="M56.6181 43.1776C57.8122 59.8126 60.9712 68.1301 66.0949 68.1301C73.7809 68.1301 80.3019 63.2507 83.6744 63.2507C86.1328 63.2507 85.5839 66.3272 83.9543 68.6081C82.6099 70.49 76.0626 72.3039 76.0626 75.2215C76.0626 78.139 81.2355 75.8819 81.2355 77.6122C81.2355 80.4744 82.1446 85.8558 77.177 85.8558C72.1497 85.8558 57.7353 84.0237 55.265 76.5622C53.6708 71.7467 52.64 61.7682 52.1727 46.6266C51.8677 46.5904 51.5573 46.5718 51.2426 46.5718C46.9351 46.5718 43.4433 50.0636 43.4433 54.3711C43.4433 56.5578 44.3432 58.5343 45.7928 59.9505C43.9882 62.4978 41.9657 65.1588 39.6481 67.9045C30.9414 62.6809 24.4806 47.3894 32.9928 32.6997C35.3455 25.5034 40.6719 21.6597 46.9625 19.8749C52.0582 17.7433 57.348 17.503 61.8134 18.7808C70.5667 19.5316 78.3831 22.2008 80.5983 23.7859C80.5983 32.073 78.9925 34.5318 65.2773 34.315C61.9072 36.0948 59.3165 39.1596 56.6181 43.1776Z" fill="#191847"/>
</svg>
