<svg width="156" height="30" viewBox="0 0 156 30" fill="none" xmlns="http://www.w3.org/2000/svg">
<path d="M0 12.5361L9.89372 19.3196L6.18357 30L15.7681 23.6495L25.8164 30L22.1063 19.3196L32 12.5361H19.7874L15.7681 2L12.058 12.5361H0Z" fill="#FBBC05"/>
<path d="M32 11.2887L41.5845 18.5567L37.9903 30L47.2754 23.1959L57.0097 30L53.4155 18.5567L63 11.2887H51.1691L47.2754 0L43.6812 11.2887H32Z" fill="#FBBC05"/>
<path d="M63 11.2887L72.8937 18.5567L69.1836 30L78.7681 23.1959L88.8164 30L85.1063 18.5567L95 11.2887H82.7874L78.7681 0L75.058 11.2887H63Z" fill="#FBBC05"/>
<path d="M95 10.9124L104.275 17.9381L100.797 29L109.783 22.4227L119.203 29L115.725 17.9381L125 10.9124H113.551L109.783 0L106.304 10.9124H95Z" fill="#FBBC05"/>
<path d="M126 10.9124L135.275 17.9381L131.797 29L140.783 22.4227L150.203 29L146.725 17.9381L156 10.9124H144.551L140.783 0L137.304 10.9124H126Z" fill="#FBBC05"/>
</svg>
