<svg width="172" height="29" viewBox="0 0 172 29" fill="none" xmlns="http://www.w3.org/2000/svg">
<path d="M46.1843 10.0827L49.4221 3.92457C49.5163 3.74635 49.6613 3.59645 49.8407 3.49168C50.0201 3.38692 50.2268 3.33142 50.4378 3.33142C50.6487 3.33142 50.8555 3.38692 51.0349 3.49168C51.2143 3.59645 51.3592 3.74635 51.4535 3.92457L54.6912 10.0827L61.9294 11.0761C62.1382 11.1034 62.3346 11.1857 62.4963 11.3134C62.658 11.4411 62.7784 11.6092 62.8437 11.7985C62.9091 11.9877 62.9168 12.1905 62.866 12.3837C62.8151 12.5769 62.7078 12.7527 62.5563 12.891L57.3195 17.6815L58.5558 24.4493C58.7141 25.3179 57.742 25.9794 56.9108 25.5698L50.4378 22.3731L43.9635 25.5698C43.1335 25.9806 42.1614 25.3179 42.3197 24.4481L43.556 17.6803L38.3192 12.8899C38.1684 12.7514 38.0618 12.5758 38.0114 12.3829C37.961 12.1901 37.9689 11.9878 38.0342 11.7989C38.0995 11.6101 38.2196 11.4424 38.3808 11.3148C38.542 11.1873 38.7378 11.1049 38.9461 11.0773L46.1843 10.0827Z" fill="#E9643A" stroke="#E9643A" stroke-width="2.4925" stroke-linecap="round" stroke-linejoin="round"/>
<path d="M10.6949 10.0827L13.7528 3.92457C13.8418 3.74635 13.9787 3.59645 14.1481 3.49168C14.3175 3.38692 14.5128 3.33142 14.712 3.33142C14.9112 3.33142 15.1065 3.38692 15.2759 3.49168C15.4454 3.59645 15.5823 3.74635 15.6713 3.92457L18.7292 10.0827L25.5653 11.0761C25.7624 11.1034 25.948 11.1857 26.1006 11.3134C26.2533 11.4411 26.367 11.6092 26.4288 11.7985C26.4905 11.9877 26.4978 12.1905 26.4498 12.3837C26.4018 12.5769 26.3004 12.7527 26.1573 12.891L21.2115 17.6815L22.3791 24.4493C22.5286 25.3179 21.6105 25.9794 20.8254 25.5698L14.712 22.3731L8.59744 25.5698C7.81355 25.9806 6.89548 25.3179 7.04497 24.4481L8.21256 17.6803L3.26676 12.8899C3.12432 12.7514 3.02358 12.5758 2.97599 12.3829C2.9284 12.1901 2.93586 11.9878 2.99754 11.7989C3.05921 11.6101 3.17261 11.4424 3.32486 11.3148C3.47711 11.1873 3.6621 11.1049 3.85879 11.0773L10.6949 10.0827Z" fill="#D63715" stroke="#D63715" stroke-width="2.4925" stroke-linecap="round" stroke-linejoin="round"/>
<path d="M82.1464 10.0827L85.2043 3.92457C85.2933 3.74635 85.4302 3.59645 85.5996 3.49168C85.7691 3.38692 85.9644 3.33142 86.1636 3.33142C86.3628 3.33142 86.558 3.38692 86.7275 3.49168C86.8969 3.59645 87.0338 3.74635 87.1228 3.92457L90.1807 10.0827L97.0168 11.0761C97.214 11.1034 97.3995 11.1857 97.5522 11.3134C97.7049 11.4411 97.8186 11.6092 97.8803 11.7985C97.942 11.9877 97.9493 12.1905 97.9013 12.3837C97.8533 12.5769 97.752 12.7527 97.6088 12.891L92.663 17.6815L93.8306 24.4493C93.9801 25.3179 93.062 25.9794 92.277 25.5698L86.1636 22.3731L80.049 25.5698C79.2651 25.9806 78.347 25.3179 78.4965 24.4481L79.6641 17.6803L74.7183 12.8899C74.5759 12.7514 74.4751 12.5758 74.4275 12.3829C74.3799 12.1901 74.3874 11.9878 74.4491 11.7989C74.5107 11.6101 74.6242 11.4424 74.7764 11.3148C74.9287 11.1873 75.1136 11.1049 75.3103 11.0773L82.1464 10.0827Z" fill="#EA7D06" stroke="#EA7D06" stroke-width="2.4925" stroke-linecap="round" stroke-linejoin="round"/>
<path d="M153.598 10.0827L156.656 3.92457C156.745 3.74635 156.882 3.59645 157.051 3.49168C157.22 3.38692 157.416 3.33142 157.615 3.33142C157.814 3.33142 158.009 3.38692 158.179 3.49168C158.348 3.59645 158.485 3.74635 158.574 3.92457L161.632 10.0827L168.468 11.0761C168.665 11.1034 168.851 11.1857 169.004 11.3134C169.156 11.4411 169.27 11.6092 169.332 11.7985C169.393 11.9877 169.401 12.1905 169.353 12.3837C169.305 12.5769 169.203 12.7527 169.06 12.891L164.114 17.6815L165.282 24.4493C165.432 25.3179 164.513 25.9794 163.728 25.5698L157.615 22.3731L151.5 25.5698C150.717 25.9806 149.798 25.3179 149.948 24.4481L151.116 17.6803L146.17 12.8899C146.027 12.7514 145.927 12.5758 145.879 12.3829C145.831 12.1901 145.839 11.9878 145.9 11.7989C145.962 11.6101 146.076 11.4424 146.228 11.3148C146.38 11.1873 146.565 11.1049 146.762 11.0773L153.598 10.0827Z" fill="#E89842" stroke="#E89842" stroke-width="2.4925" stroke-linecap="round" stroke-linejoin="round"/>
<path d="M117.636 10.0827L120.874 3.92457C120.968 3.74635 121.113 3.59645 121.292 3.49168C121.472 3.38692 121.678 3.33142 121.889 3.33142C122.1 3.33142 122.307 3.38692 122.487 3.49168C122.666 3.59645 122.811 3.74635 122.905 3.92457L126.143 10.0827L133.381 11.0761C133.59 11.1034 133.786 11.1857 133.948 11.3134C134.11 11.4411 134.23 11.6092 134.295 11.7985C134.361 11.9877 134.368 12.1905 134.318 12.3837C134.267 12.5769 134.159 12.7527 134.008 12.891L128.771 17.6815L130.007 24.4493C130.166 25.3179 129.194 25.9794 128.362 25.5698L121.889 22.3731L115.415 25.5698C114.585 25.9806 113.613 25.3179 113.771 24.4481L115.008 17.6803L109.771 12.8899C109.62 12.7514 109.513 12.5758 109.463 12.3829C109.413 12.1901 109.421 11.9878 109.486 11.7989C109.551 11.6101 109.671 11.4424 109.832 11.3148C109.994 11.1873 110.19 11.1049 110.398 11.0773L117.636 10.0827Z" fill="#FF9422" stroke="#FF9422" stroke-width="2.4925" stroke-linecap="round" stroke-linejoin="round"/>
</svg>
